<?xml version="1.0" encoding="utf-8"?>
<!-- Generator: Adobe Illustrator 24.2.3, SVG Export Plug-In . SVG Version: 6.00 Build 0)  -->
<svg version="1.1" id="Layer_1" xmlns="http://www.w3.org/2000/svg" xmlns:xlink="http://www.w3.org/1999/xlink" x="0px" y="0px"
	 viewBox="0 0 181 107.8" style="enable-background:new 0 0 181 107.8;" xml:space="preserve">
<style type="text/css">
	.st0{stroke:#000000;stroke-width:8;stroke-miterlimit:10;}
	.st1{fill:#C92F00;}
	.st2{fill:#FFFFFF;}
</style>
<g>
	<polygon class="st0" points="148.4,25.1 148.4,25.1 90.4,4.8 32.5,25.1 32.5,25.1 4.4,25.1 4.4,82.5 32.5,82.5 32.5,82.6 
		90.4,102.9 148.4,82.6 148.4,82.5 176.6,82.5 176.6,25.1 	"/>
</g>
<g>
	<g>
		<path class="st1" d="M11.2,54.3c1.5,10.9,2.2,16.3,3.7,27.1c-1.3,0-2,0-3.3,0c-1.2-10.6-1.9-15.9-3.1-26.5c-0.5,0-0.8,0-1.3,0
			c0,10.6,0,15.9,0,26.5c-1.2,0-1.8,0-2.9,0c0-18.7,0-37.5,0-56.2c2,0,3,0,5,0c3,0,4.5,1.8,4.5,5.5c0,7.4,0,11.1,0,18.5
			C13.7,51.6,12.9,53.3,11.2,54.3z M7.1,28.4c0,9.3,0,14,0,23.3c0.5,0,0.7,0,1.2,0c0.6,0,1,0,1.2-0.1c0.8-0.4,1.3-1.1,1.3-2.2
			c0-7.4,0-11.1,0-18.5c0-1.6-0.7-2.4-2-2.4C8.2,28.4,7.8,28.4,7.1,28.4z"/>
		<path class="st1" d="M19.9,67.1c-0.3,5.7-0.5,8.6-0.8,14.4c-1.2,0-1.8,0-2.9,0c0.5-7.9,0.7-11.8,1.2-19.7
			c0.9-12.2,1.7-24.3,2.6-36.5c1.7,0,2.6,0,4.3,0c0.9,12.1,1.7,24.3,2.6,36.4c0.5,7.9,0.7,11.9,1.2,19.8c-1.2,0-1.8,0-2.9,0
			c-0.3-5.7-0.5-8.6-0.8-14.4C22.5,67.1,21.6,67.1,19.9,67.1z M24,63.9c-0.7-12-1.3-23.9-2-35.9c-0.7,12-1.3,23.9-2,35.9
			C21.6,63.9,22.4,63.9,24,63.9z"/>
		<path class="st1" d="M37.5,23.4c1-0.4,1.6-0.5,2.6-0.9c0,20.5,0,41.1,0,61.6c-0.7-0.2-1.1-0.4-1.8-0.6c-1.6-14.1-3.2-28.3-5-42.4
			c0,13.6,0,27.1,0,40.7c-1-0.3-1.5-0.4-2.5-0.4c0-18.7,0-37.5,0-56.2c0.8,0,1.1,0.1,1.8-0.2c1.7,13.8,3.3,27.5,4.9,41.3
			C37.5,52,37.5,37.7,37.5,23.4z"/>
		<path class="st1" d="M43.9,21.2c2-0.7,3-1,5-1.7c2.9-1,4.3,0.8,4.3,5.5c0,18.9,0,37.8,0,56.7c0,4.6-1.5,6.4-4.5,5.4
			c-1.9-0.7-2.9-1-4.8-1.6C43.9,64,43.9,42.6,43.9,21.2z M46.7,24c0,19.6,0,39.1,0,58.7c0.8,0.2,1.1,0.3,1.9,0.6
			c1.2,0.4,1.9-0.4,1.9-2.3c0-18.4,0-36.8,0-55.2c0-1.9-0.6-2.7-1.9-2.3C47.8,23.6,47.4,23.7,46.7,24z"/>
		<path class="st1" d="M65.8,85.9c0,5.2-1.6,7.3-4.6,6.3c-3.1-1.1-4.6-4-4.6-8.9c0-20,0-40,0-60c0-4.8,1.5-7.8,4.6-8.8
			c3.1-1.1,4.6,1,4.6,6.2C65.8,42.5,65.8,64.2,65.8,85.9z M63.1,21.5c0-2.2-0.6-3-1.9-2.7l0,0c-1.2,0.4-1.9,1.6-1.9,3.7
			c0,20.5,0,41,0,61.6c0,2.1,0.6,3.4,1.9,3.7c1.3,0.4,1.9-0.5,1.9-2.7C63.1,63.9,63.1,42.7,63.1,21.5z"/>
		<path class="st1" d="M75.7,96.4c-1.2-22.3-2.4-44.6-3.6-66.9c0,21.9,0,43.7,0,65.6c-1.1-0.4-1.6-0.5-2.6-0.9c0-27.3,0-54.5,0-81.8
			c1.6-0.6,2.4-0.8,4-1.4c1.1,24.2,2.2,48.3,3.3,72.5c1-24.9,2-49.8,3-74.7c1.6-0.6,2.4-0.8,4-1.4c0,30.6,0,61.1,0,91.7
			c-1.1-0.4-1.6-0.5-2.6-0.9c0-23.5,0-47,0-70.6c-1.2,23.1-2.4,46.2-3.7,69.3C76.8,96.8,76.4,96.6,75.7,96.4z"/>
		<path class="st2" d="M90.2,70.8c0,8.8,0,13.2,0,22.1c0,2.7,0.6,3.9,1.9,3.5c1.2-0.4,1.9-1.9,1.9-4.5c0-9.6,0-19.1,0-28.7
			c0-2.5-1.1-5.4-3.4-8.6c-2.1-2.9-3.1-6.5-3.1-10.6c0-9.8,0-19.5,0-29.3c0-6.2,1.5-10.8,4.6-9.7s4.6,4.7,4.6,10.7
			c0,8.5,0,12.7,0,21.1c-1.1-0.1-1.7-0.2-2.8-0.3c0-8.6,0-12.9,0-21.6c0-2.6-0.6-4.1-1.9-4.5l0,0c-1.2-0.4-1.9,0.8-1.9,3.5
			c0,9.9,0,19.8,0,29.7c0,2.5,1.1,5.4,3.4,8.7c2.1,2.9,3.1,6.2,3.1,10.2c0,9.6,0,19.1,0,28.7c0,6.1-1.5,9.7-4.6,10.7
			c-3.1,1.1-4.6-3.5-4.6-9.7c0-8.6,0-13,0-21.6C88.5,70.6,89.1,70.6,90.2,70.8z"/>
		<path class="st2" d="M102,9.3c0.9,13.2,1.8,26.5,2.7,39.7c0.9-12.6,1.8-25.2,2.7-37.8c1.2,0.4,1.8,0.6,2.9,1
			c-1.4,15.6-2.8,31.3-4.1,46.9c0,0.4-0.1,0.7-0.1,1.1c0,11.9,0,23.9,0,35.8c-1.1,0.4-1.7,0.6-2.8,0.9c0-12.2,0-24.4,0-36.6
			c0-0.4-0.1-0.7-0.1-1.1c-1.4-17-2.8-33.9-4.2-50.9C100.3,8.7,100.9,8.9,102,9.3z"/>
		<path class="st2" d="M115.5,67.6c0,7.2,0,10.8,0,18.1c0,2.2,0.6,3.1,1.9,2.7c1.2-0.4,1.9-1.7,1.9-3.8c0-9.3,0-14,0-23.4
			c0-2.1-1.1-4.4-3.4-7c-2.1-2.4-3.1-5.5-3.1-9.1c0-10,0-15.1,0-25.1c0-5.3,1.5-7.4,4.6-6.4c3.1,1.1,4.6,4.1,4.6,9
			c0,6.9,0,10.3,0,17.1c-1.1-0.1-1.7-0.2-2.8-0.3c0-7,0-10.5,0-17.6c0-2.1-0.6-3.4-1.9-3.8l0,0c-1.2-0.4-1.9,0.5-1.9,2.7
			c0,9.8,0,14.6,0,24.4c0,2,1.1,4.5,3.4,7.1c2.1,2.4,3.1,5.1,3.1,8.3c0,9.3,0,13.9,0,23.2c0,4.9-1.5,7.9-4.6,9s-4.6-1.1-4.6-6.4
			c0-7.4,0-11.1,0-18.5C113.8,67.8,114.4,67.8,115.5,67.6z"/>
		<path class="st2" d="M133.7,20.2c0,1.5,0,2.2,0,3.7c-1.3-0.4-2-0.6-3.3-1c0,21.6,0,43.1,0,64.7c-1.1,0.4-1.6,0.6-2.7,0.9
			c0-22.1,0-44.3,0-66.4c-1.3-0.4-2-0.6-3.3-1c0-1.6,0-2.4,0-4.1C128.1,18.3,130,18.9,133.7,20.2z"/>
		<path class="st2" d="M136.3,21.1c3.3,1.1,5,1.7,8.3,2.8c0,1.3,0,2,0,3.3c-2.2-0.7-3.3-1-5.5-1.7c0,10.4,0,15.6,0,25.9
			c1.9,0,2.9,0.1,4.8,0.1c0,1.4,0,2,0,3.4c-1.9,0-2.9,0.1-4.8,0.1c0,10.4,0,15.6,0,26c2.2-0.7,3.3-1,5.5-1.7c0,1.3,0,2,0,3.3
			c-3.3,1.1-5,1.7-8.3,2.8C136.3,64.1,136.3,42.6,136.3,21.1z"/>
		<path class="st2" d="M154.1,81.4c-1.3-14.7-2.6-29.4-3.9-44.1c0,14.7,0,29.4,0,44.1c-1.1,0-1.7-0.1-2.7,0.3c0-18.9,0-37.8,0-56.8
			c1.6,0.6,2.5,0.3,4.2,0.3c1.2,15.9,2.3,31.8,3.5,47.6c1.1-15.9,2.2-31.8,3.2-47.6c1.7,0,2.6,0,4.3,0c0,18.7,0,37.5,0,56.2
			c-1.1,0-1.7,0-2.8,0c0-14.7,0-29.4,0-44.1c-1.3,14.7-2.6,29.4-3.9,44.1C155.2,81.4,154.8,81.4,154.1,81.4z"/>
		<path class="st2" d="M169.4,63.5c0,5.2,0,7.7,0,12.9c0,1.6,0.7,2.4,2,2.4s2-0.8,2-2.4c0-6.9,0-10.3,0-17.2c0-1.5-1.2-3.3-3.6-5.2
			c-2.2-1.7-3.3-3.9-3.3-6.3c0-7,0-10.5,0-17.5c0-3.7,1.6-5.6,4.9-5.6c3.3,0,4.9,1.9,4.9,5.6c0,5.2,0,7.8,0,13c-1.2,0-1.8,0-2.9,0
			c0-5.2,0-7.8,0-13c0-1.6-0.7-2.4-2-2.4l0,0c-1.3,0-2,0.8-2,2.4c0,7,0,10.4,0,17.4c0,1.4,1.2,3.1,3.6,5c2.2,1.7,3.3,3.8,3.3,6.2
			c0,7,0,10.5,0,17.6c0,3.7-1.6,5.6-4.9,5.6c-3.3,0-4.9-1.9-4.9-5.6c0-5.2,0-7.7,0-12.9C167.6,63.5,168.2,63.5,169.4,63.5z"/>
	</g>
</g>
</svg>
