<?xml version="1.0" encoding="utf-8"?>
<!-- Generator: Adobe Illustrator 24.1.3, SVG Export Plug-In . SVG Version: 6.00 Build 0)  -->
<svg version="1.1" id="Layer_1" xmlns="http://www.w3.org/2000/svg" xmlns:xlink="http://www.w3.org/1999/xlink" x="0px" y="0px"
	 viewBox="0 0 537.4 635.2" style="enable-background:new 0 0 537.4 635.2;" xml:space="preserve">
<style type="text/css">
	.st0{display:none;}
</style>
<g>
	<path class="st0" d="M511.7,354.7c-6.9-42.1-32-86.6-72.6-128.9c-72.3-79.3-124-145.9-151.8-181.6c-7.5-9.7-13.5-17.3-17.9-22.8
		l-0.4-0.5l-0.4,0.5c-2.9,3.8-6.5,8.7-10.7,14.5C233.5,69,182.7,138,100.3,225.7l-0.1,0.1c-44.8,45.8-71.9,91-80.4,134.3
		c-7.4,37.7,0,71.8,21.4,98.6c20.8,26,52.9,42.5,90.4,46.4c38.9,4.1,80.7-6.1,117.6-28.7c0.3,36.5-21.1,71.2-41.9,104.8
		c-7,11.4-13.6,22.1-19.5,32.9l-0.4,0.7l69.8,0l0-1h-68.2c5.8-10.6,12.2-21.1,19.1-32.2c21-34,42.6-69.1,42-106.2l0-0.9l-0.7,0.5
		c-32.5,20.1-68,29.9-101.3,29.9c-42.4,0-81.4-16-106.2-47c-21.2-26.5-28.5-60.3-21.2-97.8c8.5-43.1,35.5-88.2,80.2-133.9l0.8-0.8h0
		c82-87.3,132.6-156.1,156.9-189.2c4-5.5,7.5-10.3,10.3-14c4.4,5.4,10.2,12.9,17.5,22.3c27.8,35.7,79.5,102.3,151.9,181.7
		c92.1,95.9,85.9,179.9,49.4,226.5c-36.7,46.9-116.9,69.6-199.2,22.3l-0.8-0.4l0,0.9c1.1,37.2,24.1,72.4,46.3,106.5
		c7.2,11.1,14,21.5,20,31.9h-75.4l0,1h77.1l-0.4-0.7c-6.1-10.6-13.1-21.3-20.4-32.7c-22-33.7-44.7-68.6-46.1-105.1
		c37.3,21.2,76.7,29.7,114.1,24.5c35.1-4.9,65.5-21.7,85.6-47.4C509.9,426.3,517.9,392.1,511.7,354.7z"/>
	<path d="M511.7,354.7c-6.9-42.1-32-86.6-72.6-128.9c-72.3-79.3-124-145.9-151.8-181.6c-7.5-9.7-13.5-17.3-17.9-22.8l-0.4-0.5
		l-0.4,0.5c-2.9,3.8-6.5,8.7-10.7,14.5C233.5,69,182.7,138,100.3,225.7l-0.1,0.1c-44.8,45.8-71.9,91-80.4,134.3
		c-7.4,37.7,0,71.8,21.4,98.6c20.8,26,52.9,42.5,90.4,46.4c38.9,4.1,80.7-6.1,117.6-28.7c0.3,36.5-21.1,71.2-41.9,104.8
		c-7,11.4-13.6,22.1-19.5,32.9l-0.4,0.7l69.8,0l0-1h-68.2c5.8-10.6,12.2-21.1,19.1-32.2c21-34,42.6-69.1,42-106.2l0-0.9l-0.7,0.5
		c-32.5,20.1-68,29.9-101.3,29.9c-42.4,0-81.4-16-106.2-47c-21.2-26.5-28.5-60.3-21.2-97.8c8.5-43.1,35.5-88.2,80.2-133.9l0.8-0.8h0
		c82-87.3,132.6-156.1,156.9-189.2c4-5.5,7.5-10.3,10.3-14c4.4,5.4,10.2,12.9,17.5,22.3c27.8,35.7,79.5,102.3,151.9,181.7
		c92.1,95.9,85.9,179.9,49.4,226.5c-36.7,46.9-116.9,69.6-199.2,22.3l-0.8-0.4l0,0.9c1.1,37.2,24.1,72.4,46.3,106.5
		c7.2,11.1,14,21.5,20,31.9h-75.4l0,1h77.1l-0.4-0.7c-6.1-10.6-13.1-21.3-20.4-32.7c-22-33.7-44.7-68.6-46.1-105.1
		c37.3,21.2,76.7,29.7,114.1,24.5c35.1-4.9,65.5-21.7,85.6-47.4C509.9,426.3,517.9,392.1,511.7,354.7z"/>
</g>
</svg>
